<svg viewBox="0 0 100 100" xmlns="http://www.w3.org/2000/svg">
  <defs>
    <linearGradient id="gradA" x1="0%" y1="0%" x2="100%" y2="100%">
      <stop offset="0%" stop-color="#f0794a"/>
      <stop offset="100%" stop-color="#C1440E"/>
    </linearGradient>
    <linearGradient id="gradB" x1="0%" y1="0%" x2="100%" y2="100%">
      <stop offset="0%" stop-color="#C1440E"/>
      <stop offset="100%" stop-color="#7A2C08"/>
    </linearGradient>
    <clipPath id="clipA">
      <path d="M31.8,18.5 L13.6,29 L13.6,71 L50,92 L68.2,81.5 L50,50 Z"/>
    </clipPath>
    <clipPath id="clipB">
      <path d="M68.2,81.5 L86.4,71 L86.4,29 L50,8 L31.8,18.5 L50,50 Z"/>
    </clipPath>
  </defs>

  <path d="M31.8,18.5 L13.6,29 L13.6,71 L50,92 L68.2,81.5 L50,50 Z" fill="url(#gradA)"/>
  <path d="M68.2,81.5 L86.4,71 L86.4,29 L50,8 L31.8,18.5 L50,50 Z" fill="url(#gradB)"/>

  <g clip-path="url(#clipA)" opacity="0.55" fill="#000000">
    <rect x="0" y="6"  width="100" height="1.4"/>
    <rect x="0" y="16" width="100" height="1.4"/>
    <rect x="0" y="26" width="100" height="1.4"/>
    <rect x="0" y="36" width="100" height="1.4"/>
    <rect x="0" y="46" width="100" height="1.4"/>
    <rect x="0" y="56" width="100" height="1.4"/>
    <rect x="0" y="66" width="100" height="1.4"/>
    <rect x="0" y="76" width="100" height="1.4"/>
    <rect x="0" y="86" width="100" height="1.4"/>
  </g>
  <g clip-path="url(#clipB)" opacity="0.4" fill="#000000">
    <rect x="0" y="6"  width="100" height="1.4"/>
    <rect x="0" y="16" width="100" height="1.4"/>
    <rect x="0" y="26" width="100" height="1.4"/>
    <rect x="0" y="36" width="100" height="1.4"/>
    <rect x="0" y="46" width="100" height="1.4"/>
    <rect x="0" y="56" width="100" height="1.4"/>
    <rect x="0" y="66" width="100" height="1.4"/>
    <rect x="0" y="76" width="100" height="1.4"/>
    <rect x="0" y="86" width="100" height="1.4"/>
  </g>

  <path d="M50,8 L86.4,29 L86.4,71 L50,92 L13.6,71 L13.6,29 Z" fill="none" stroke="#000000" stroke-opacity="0.35" stroke-width="1.2"/>
</svg>
